# Alias OBJ Model File
# Exported from SketchUp, (c) 2000-2012 Trimble Navigation Limited
# File units = inches

mtllib Untitled.mtl

g Mesh1 Model

usemtl Color_008
v 0 0 -0
vt 0 0
vn 0 -1 -0
v 0 0 -289
vt 0 289
v 289 0 -289
vt -289 289
v 289 0 -0
vt -289 0
v 94.147 0 -0
vt -94.147 0
v 28.3388 0 -0
vt -28.3388 0
f 1/1/1 2/2/1 3/3/1 4/4/1 5/5/1 6/6/1 

vn -1 0 -0
v 0 153.909 -10.4661
vt -10.4661 153.909
f 1/1/2 7/7/2 2/4/2

v 0 169.409 -10.4661
vt -10.4661 169.409
f 7/7/2 1/1/2 8/8/2

v 0 178.913 -0
vt 0 178.913
f 9/9/2 8/8/2 1/1/2

v 0 178.913 -289
vt -289 178.913
f 8/8/2 9/9/2 10/10/2

usemtl Color_D06
v 0 199.164 -289
vt -289 199.164
v 0 199.164 -0
vt 0 199.164
f 11/11/2 10/10/2 9/9/2 12/12/2 

v 289 199.164 -289
vn 0 0 -1
v 289 178.913 -289
f 13/11/3 14/10/3 10/9/3 11/12/3 

v 289 199.164 -0
vn 1 0 -0
v 289 178.913 -0
vt 289 178.913
vt 289 199.164
f 15/12/4 16/9/4 14/13/4 13/14/4 

vn 0 0 1
f 12/12/5 9/9/5 16/13/5 15/14/5 

usemtl FrontColor
vn 0 1 -0
vt 289 0
vt 289 289
f 10/2/6 9/1/6 16/15/6 14/16/6 

usemtl Color_008
v 8.11901 169.457 -0
vt 8.11901 169.457
f 9/9/5 17/17/5 16/13/5

v 8.11901 153.957 -0
vt 8.11901 153.957
f 9/9/5 18/18/5 17/17/5

f 1/1/5 18/18/5 9/9/5

v 28.3388 124.168 -0
vt 28.3388 124.168
f 1/1/5 19/19/5 18/18/5

vt 28.3388 0
f 19/19/5 1/1/5 6/20/5

usemtl Color_D06
vt 94.147 0
v 94.147 124.168 -0
vt 94.147 124.168
f 6/20/5 5/21/5 20/22/5 19/19/5 

usemtl Color_008
v 287.869 153.957 -0
vt 287.869 153.957
f 5/21/5 21/23/5 20/22/5

f 4/15/5 21/23/5 5/21/5

f 21/23/5 4/15/5 16/13/5

v 289 152.24 -6.96415
vt 6.96415 152.24
f 4/1/4 22/24/4 16/9/4

f 22/24/4 4/1/4 3/15/4

v 289 152.24 -65.2141
vt 65.2141 152.24
f 22/24/4 3/15/4 23/25/4

v 289 152.24 -80.7141
vt 80.7141 152.24
f 23/25/4 3/15/4 24/26/4

v 289 152.24 -138.964
vt 138.964 152.24
f 24/26/4 3/15/4 25/27/4

v 289 167.74 -138.964
vt 138.964 167.74
f 25/27/4 3/15/4 26/28/4

v 289 152.24 -155.964
vt 155.964 152.24
f 26/28/4 3/15/4 27/29/4

v 289 152.24 -214.214
vt 214.214 152.24
f 27/29/4 3/15/4 28/30/4

v 289 167.74 -214.214
vt 214.214 167.74
f 28/30/4 3/15/4 29/31/4

v 289 152.24 -228.714
vt 228.714 152.24
f 29/31/4 3/15/4 30/32/4

v 289 152.24 -286.964
vt 286.964 152.24
f 30/32/4 3/15/4 31/33/4

v 289 167.74 -286.964
vt 286.964 167.74
f 31/33/4 3/15/4 32/34/4

f 14/13/4 32/34/4 3/15/4

v 289 167.74 -228.714
vt 228.714 167.74
f 14/13/4 33/35/4 32/34/4

f 14/13/4 29/31/4 33/35/4

v 289 167.74 -155.964
vt 155.964 167.74
f 14/13/4 34/36/4 29/31/4

f 14/13/4 26/28/4 34/36/4

v 289 167.74 -80.7141
vt 80.7141 167.74
f 14/13/4 35/37/4 26/28/4

v 289 167.74 -65.2141
vt 65.2141 167.74
f 14/13/4 36/38/4 35/37/4

v 289 167.74 -6.96415
vt 6.96415 167.74
f 14/13/4 37/39/4 36/38/4

f 16/9/4 37/39/4 14/13/4

f 37/39/4 16/9/4 22/24/4

usemtl Color_D06
f 23/25/4 36/38/4 37/39/4 22/24/4 

usemtl Color_008
f 23/25/4 24/26/4 36/38/4

f 35/37/4 36/38/4 24/26/4

usemtl Color_D06
f 25/27/4 26/28/4 35/37/4 24/26/4 

usemtl Color_008
f 34/36/4 26/28/4 27/29/4

usemtl Color_D06
f 28/30/4 29/31/4 34/36/4 27/29/4 

usemtl Color_008
f 33/35/4 29/31/4 30/32/4

usemtl Color_D06
f 31/33/4 32/34/4 33/35/4 30/32/4 

usemtl Color_008
v 285.267 153.112 -289
vt -285.267 153.112
f 3/4/3 38/40/3 14/10/3

v 26.0174 153.112 -289
vt -26.0174 153.112
f 38/40/3 3/4/3 39/41/3

f 2/1/3 39/41/3 3/4/3

f 39/41/3 2/1/3 10/9/3

v 0 153.909 -282.966
vt -282.966 153.909
f 2/4/2 40/42/2 10/10/2

v 0 153.909 -224.716
vt -224.716 153.909
f 2/4/2 41/43/2 40/42/2

v 0 153.909 -212.716
vt -212.716 153.909
f 2/4/2 42/44/2 41/43/2

v 0 153.909 -154.466
vt -154.466 153.909
f 2/4/2 43/45/2 42/44/2

v 0 153.909 -140.966
vt -140.966 153.909
f 2/4/2 44/46/2 43/45/2

v 0 153.909 -82.7161
vt -82.7161 153.909
f 2/4/2 45/47/2 44/46/2

v 0 153.909 -68.7161
vt -68.7161 153.909
f 2/4/2 46/48/2 45/47/2

f 2/4/2 7/7/2 46/48/2

usemtl Color_D06
v 0 169.409 -68.7161
vt -68.7161 169.409
f 7/7/2 8/8/2 47/49/2 46/48/2 

usemtl Color_008
f 8/8/2 10/10/2 47/49/2

v 0 169.409 -82.7161
vt -82.7161 169.409
f 47/49/2 10/10/2 48/50/2

v 0 169.409 -140.966
vt -140.966 169.409
f 48/50/2 10/10/2 49/51/2

v 0 169.409 -154.466
vt -154.466 169.409
f 49/51/2 10/10/2 50/52/2

v 0 169.409 -212.716
vt -212.716 169.409
f 50/52/2 10/10/2 51/53/2

v 0 169.409 -224.716
vt -224.716 169.409
f 51/53/2 10/10/2 52/54/2

v 0 169.409 -282.966
vt -282.966 169.409
f 52/54/2 10/10/2 53/55/2

f 53/55/2 10/10/2 40/42/2

usemtl Color_D06
f 41/43/2 52/54/2 53/55/2 40/42/2 

usemtl Color_008
f 41/43/2 42/44/2 52/54/2

f 51/53/2 52/54/2 42/44/2

usemtl Color_D06
f 43/45/2 50/52/2 51/53/2 42/44/2 

usemtl Color_008
f 43/45/2 44/46/2 50/52/2

f 49/51/2 50/52/2 44/46/2

usemtl Color_D06
f 45/47/2 48/50/2 49/51/2 44/46/2 

usemtl Color_008
f 45/47/2 46/48/2 48/50/2

f 47/49/2 48/50/2 46/48/2

v 26.0174 168.612 -289
vt -26.0174 168.612
f 39/41/3 10/9/3 54/56/3

v 84.2674 168.612 -289
vt -84.2674 168.612
f 54/56/3 10/9/3 55/57/3

v 91.5174 168.612 -289
vt -91.5174 168.612
f 55/57/3 10/9/3 56/58/3

v 149.767 168.612 -289
vt -149.767 168.612
f 56/58/3 10/9/3 57/59/3

v 160.267 168.612 -289
vt -160.267 168.612
f 57/59/3 10/9/3 58/60/3

v 218.517 168.612 -289
vt -218.517 168.612
f 58/60/3 10/9/3 59/61/3

v 227.017 168.612 -289
vt -227.017 168.612
f 59/61/3 10/9/3 60/62/3

v 285.267 168.612 -289
vt -285.267 168.612
f 60/62/3 10/9/3 61/63/3

f 14/10/3 61/63/3 10/9/3

f 14/10/3 38/40/3 61/63/3

usemtl Color_D06
v 227.017 153.112 -289
vt -227.017 153.112
f 62/64/3 60/62/3 61/63/3 38/40/3 

usemtl Color_008
f 62/64/3 59/61/3 60/62/3

v 218.517 153.112 -289
vt -218.517 153.112
f 59/61/3 62/64/3 63/65/3

f 38/40/3 63/65/3 62/64/3

v 160.267 153.112 -289
vt -160.267 153.112
f 38/40/3 64/66/3 63/65/3

v 149.767 153.112 -289
vt -149.767 153.112
f 38/40/3 65/67/3 64/66/3

v 91.5174 153.112 -289
vt -91.5174 153.112
f 38/40/3 66/68/3 65/67/3

v 84.2674 153.112 -289
vt -84.2674 153.112
f 38/40/3 67/69/3 66/68/3

f 38/40/3 39/41/3 67/69/3

usemtl Color_D06
f 39/41/3 54/56/3 55/57/3 67/69/3 

usemtl Color_008
f 55/57/3 66/68/3 67/69/3

f 66/68/3 55/57/3 56/58/3

usemtl Color_D06
f 66/68/3 56/58/3 57/59/3 65/67/3 

usemtl Color_008
f 57/59/3 64/66/3 65/67/3

f 64/66/3 57/59/3 58/60/3

usemtl Color_D06
f 64/66/3 58/60/3 59/61/3 63/65/3 

usemtl Color_008
v 287.869 169.457 -0
vt 287.869 169.457
f 21/23/5 16/13/5 68/70/5

v 229.619 169.457 -0
vt 229.619 169.457
f 68/70/5 16/13/5 69/71/5

v 217.619 169.457 -0
vt 217.619 169.457
f 69/71/5 16/13/5 70/72/5

v 159.369 169.457 -0
vt 159.369 169.457
f 70/72/5 16/13/5 71/73/5

v 141.119 169.457 -0
vt 141.119 169.457
f 71/73/5 16/13/5 72/74/5

v 82.869 169.457 -0
vt 82.869 169.457
f 72/74/5 16/13/5 73/75/5

v 66.369 169.457 -0
vt 66.369 169.457
f 73/75/5 16/13/5 74/76/5

f 74/76/5 16/13/5 17/17/5

usemtl Color_D06
v 66.369 153.957 -0
vt 66.369 153.957
f 75/77/5 74/76/5 17/17/5 18/18/5 

usemtl Color_008
f 75/77/5 73/75/5 74/76/5

v 82.869 153.957 -0
vt 82.869 153.957
f 73/75/5 75/77/5 76/78/5

f 18/18/5 76/78/5 75/77/5

v 141.119 153.957 -0
vt 141.119 153.957
f 18/18/5 77/79/5 76/78/5

v 159.369 153.957 -0
vt 159.369 153.957
f 18/18/5 78/80/5 77/79/5

v 217.619 153.957 -0
vt 217.619 153.957
f 18/18/5 79/81/5 78/80/5

v 229.619 153.957 -0
vt 229.619 153.957
f 18/18/5 80/82/5 79/81/5

f 18/18/5 21/23/5 80/82/5

f 18/18/5 19/19/5 21/23/5

f 20/22/5 21/23/5 19/19/5

usemtl Color_D06
f 21/23/5 68/70/5 69/71/5 80/82/5 

usemtl Color_008
f 69/71/5 79/81/5 80/82/5

f 79/81/5 69/71/5 70/72/5

usemtl Color_D06
f 79/81/5 70/72/5 71/73/5 78/80/5 

usemtl Color_008
f 71/73/5 77/79/5 78/80/5

f 77/79/5 71/73/5 72/74/5

usemtl Color_D06
f 77/79/5 72/74/5 73/75/5 76/78/5 

usemtl Color_008
v 0 237.25 -0
vt 0 237.25
v 289 237.25 -0
vt 289 237.25
f 81/83/5 12/12/5 15/14/5 82/84/5 

v 0 237.25 -289
vt -289 237.25
f 83/85/2 11/11/2 12/12/2 81/83/2 

v 289 237.25 -289
f 84/85/3 13/11/3 11/12/3 83/83/3 

f 82/83/4 15/12/4 13/14/4 84/84/4 

usemtl FrontColor
vn 0 1 -1.9669e-016
vt 0 -3.91736e-014
vt 289 -3.91736e-014
f 11/2/7 12/86/7 15/87/7 13/16/7 

usemtl Color_008
f 83/2/6 81/1/6 82/15/6 84/16/6 

